<svg xmlns="http://www.w3.org/2000/svg" width="900" height="300" viewBox="0 0 900 300" role="img" aria-labelledby="title desc" xmlns:c2pa="http://c2pa.org/manifest"><metadata><c2pa:manifest>AAAWgmp1bWIAAAAeanVtZGMycGEAEQAQgAAAqgA4m3EDYzJwYQAAABZcanVtYgAAAEdqdW1kYzJtYQARABCAAACqADibcQN1cm46YzJwYTpjNWM0NDJkZS04NjIxLTRhZDEtYjgzMi1kMzlhODAzZmM1ZjMAAAADl2p1bWIAAAApanVtZGMyYXMAEQAQgAAAqgA4m3EDYzJwYS5hc3NlcnRpb25zAAAAALxqdW1iAAAARGp1bWRjYm9yABEAEIAAAKoAOJtxE2MycGEuaW5ncmVkaWVudC52MwAAAAAYYzJzaMdNbi1I+Krw1syMvMzLCb0AAABwY2JvcqNpZGM6Zm9ybWF0bWltYWdlL3N2Zyt4bWxqaW5zdGFuY2VJRHgseG1wOmlpZDo4YWQyN2Q0Ni1jOGZlLTQ5YzktYjRiZS0wMjkwMTVkYzEyNTRscmVsYXRpb25zaGlwaHBhcmVudE9mAAAB4mp1bWIAAABBanVtZGNib3IAEQAQgAAAqgA4m3ETYzJwYS5hY3Rpb25zLnYyAAAAABhjMnNozE4s1ckHnc3y6Fzr2lGsfQAAAZljYm9yomdhY3Rpb25zgqJmYWN0aW9ua2MycGEub3BlbmVkanBhcmFtZXRlcnOha2luZ3JlZGllbnRzgaJjdXJseC1zZWxmI2p1bWJmPWMycGEuYXNzZXJ0aW9ucy9jMnBhLmluZ3JlZGllbnQudjNkaGFzaFggzsgx6ov61kEQ16UJL0o+KKETrm8SYY3xB/rKrOYJw/GkZmFjdGlvbngdY29tLmFudGhyb3BpYy5jbGF1ZGUucHJvdmlkZWRqcGFyYW1ldGVyc6F4H2NvbS5hbnRocm9waWMub3JpZ2luLWNvbmZpZGVuY2VndW5rbm93bmtkZXNjcmlwdGlvbnhmQ2xhdWRlIHByb3ZpZGVkIHRoaXMgZmlsZSBhdCB0aGUgcmVxdWVzdCBvZiBhIHVzZXIgYW5kIG1heSBoYXZlIGNyZWF0ZWQgb3IgbW9kaWZpZWQgdGhlIGZpbGUgY29udGVudHMubXNvZnR3YXJlQWdlbnShZG5hbWVmQ2xhdWRlcmFsbEFjdGlvbnNJbmNsdWRlZPUAAADIanVtYgAAAEBqdW1kY2JvcgARABCAAACqADibcRNjMnBhLmhhc2guZGF0YQAAAAAYYzJzaNsnm1G+eWf0MxsxrvNW5OAAAACAY2JvcqVjYWxnZnNoYTI1NmNwYWRNAAAAAAAAAAAAAAAAAGRoYXNoWCA9myISfZO3wfitDVKF8zz0vpPRiSBO6aSowbYxhEvS5mRuYW1lbmp1bWJmIG1hbmlmZXN0amV4Y2x1c2lvbnOBomVzdGFydBi+Zmxlbmd0aBkeBAAAAj5qdW1iAAAAJ2p1bWRjMmNsABEAEIAAAKoAOJtxA2MycGEuY2xhaW0udjIAAAACD2Nib3KlY2FsZ2ZzaGEyNTZpc2lnbmF0dXJleE1zZWxmI2p1bWJmPS9jMnBhL3VybjpjMnBhOmM1YzQ0MmRlLTg2MjEtNGFkMS1iODMyLWQzOWE4MDNmYzVmMy9jMnBhLnNpZ25hdHVyZWppbnN0YW5jZUlEeCx4bXA6aWlkOjc1OGE5MDA0LTg1YTYtNDQwNC1iODUyLWVkOWNjY2E5NjQ2Y3JjcmVhdGVkX2Fzc2VydGlvbnODomN1cmx4LXNlbGYjanVtYmY9YzJwYS5hc3NlcnRpb25zL2MycGEuaW5ncmVkaWVudC52M2RoYXNoWCDOyDHqi/rWQRDXpQkvSj4ooROubxJhjfEH+sqs5gnD8aJjdXJseCpzZWxmI2p1bWJmPWMycGEuYXNzZXJ0aW9ucy9jMnBhLmFjdGlvbnMudjJkaGFzaFggtkntmonRfFVYFs1/2X8ddywyXwAyYyLE+HYrseKeBWOiY3VybHgpc2VsZiNqdW1iZj1jMnBhLmFzc2VydGlvbnMvYzJwYS5oYXNoLmRhdGFkaGFzaFggti6/MN65FVZH1anI3G2D9oXyaB41k0EqFceLXswqiYR0Y2xhaW1fZ2VuZXJhdG9yX2luZm+jZG5hbWVvQW50aHJvcGljIEZpbGVzZ3ZlcnNpb25lMS4wLjBrc3BlY1ZlcnNpb25lMi40LjAAABA4anVtYgAAAChqdW1kYzJjcwARABCAAACqADibcQNjMnBhLnNpZ25hdHVyZQAAABAIY2JvctKEWQISogEmGCFZAgowggIGMIIBjaADAgECAhRA5aAK7sI50L64g/oGQgU9Z1UTADAKBggqhkjOPQQDAzBJMRcwFQYDVQQKEw5BbnRocm9waWMsIFBCQzEuMCwGA1UEAxMlQW50aHJvcGljIENvbnRlbnQgQ3JlZGVudGlhbHMgUm9vdCBDQTAeFw0yNjA4MDcxODQzNTZaFw0yODA4MDYxOTQzNTZaMEQxFzAVBgNVBAoTDkFudGhyb3BpYywgUEJDMSkwJwYDVQQDEyBBbnRocm9waWMgQ2xhdWRlIENvbnRlbnQgU2lnbmluZzBZMBMGByqGSM49AgEGCCqGSM49AwEHA0IABJh6CmvLUBgFFNU0vUKlOVtE6djd17L5SuwX0LemFisBM3dkd/3cyjxFA3Qo5S46fX0/ihY0VZ7mfb9KF703t5OjWDBWMA4GA1UdDwEB/wQEAwIHgDAVBgNVHSUEDjAMBgorBgEEAYPoXgIBMAwGA1UdEwEB/wQCMAAwHwYDVR0jBBgwFoAUzlHiBIFOZFsj+OPEz5o+nMHXXMIwCgYIKoZIzj0EAwMDZwAwZAIwMXMdFJ4BetLLVY7ORuE9noqbbAZOZn/aArXyTwFAZfKrPzxF2vPoJNf1+UCdg1XGAjBwX1zd9WGqYkqmL5SFqw1QySjr1zJfpJM9+1rdDwSPLMOPOjKuiXjoU/pUUeG9RwmhY3BhZFkNngAAAAAAAAAAAAAAAAAAAAAAAAAAAAAAAAAAAAAAAAAAAAAAAAAAAAAAAAAAAAAAAAAAAAAAAAAAAAAAAAAAAAAAAAAAAAAAAAAAAAAAAAAAAAAAAAAAAAAAAAAAAAAAAAAAAAAAAAAAAAAAAAAAAAAAAAAAAAAAAAAAAAAAAAAAAAAAAAAAAAAAAAAAAAAAAAAAAAAAAAAAAAAAAAAAAAAAAAAAAAAAAAAAAAAAAAAAAAAAAAAAAAAAAAAAAAAAAAAAAAAAAAAAAAAAAAAAAAAAAAAAAAAAAAAAAAAAAAAAAAAAAAAAAAAAAAAAAAAAAAAAAAAAAAAAAAAAAAAAAAAAAAAAAAAAAAAAAAAAAAAAAAAAAAAAAAAAAAAAAAAAAAAAAAAAAAAAAAAAAAAAAAAAAAAAAAAAAAAAAAAAAAAAAAAAAAAAAAAAAAAAAAAAAAAAAAAAAAAAAAAAAAAAAAAAAAAAAAAAAAAAAAAAAAAAAAAAAAAAAAAAAAAAAAAAAAAAAAAAAAAAAAAAAAAAAAAAAAAAAAAAAAAAAAAAAAAAAAAAAAAAAAAAAAAAAAAAAAAAAAAAAAAAAAAAAAAAAAAAAAAAAAAAAAAAAAAAAAAAAAAAAAAAAAAAAAAAAAAAAAAAAAAAAAAAAAAAAAAAAAAAAAAAAAAAAAAAAAAAAAAAAAAAAAAAAAAAAAAAAAAAAAAAAAAAAAAAAAAAAAAAAAAAAAAAAAAAAAAAAAAAAAAAAAAAAAAAAAAAAAAAAAAAAAAAAAAAAAAAAAAAAAAAAAAAAAAAAAAAAAAAAAAAAAAAAAAAAAAAAAAAAAAAAAAAAAAAAAAAAAAAAAAAAAAAAAAAAAAAAAAAAAAAAAAAAAAAAAAAAAAAAAAAAAAAAAAAAAAAAAAAAAAAAAAAAAAAAAAAAAAAAAAAAAAAAAAAAAAAAAAAAAAAAAAAAAAAAAAAAAAAAAAAAAAAAAAAAAAAAAAAAAAAAAAAAAAAAAAAAAAAAAAAAAAAAAAAAAAAAAAAAAAAAAAAAAAAAAAAAAAAAAAAAAAAAAAAAAAAAAAAAAAAAAAAAAAAAAAAAAAAAAAAAAAAAAAAAAAAAAAAAAAAAAAAAAAAAAAAAAAAAAAAAAAAAAAAAAAAAAAAAAAAAAAAAAAAAAAAAAAAAAAAAAAAAAAAAAAAAAAAAAAAAAAAAAAAAAAAAAAAAAAAAAAAAAAAAAAAAAAAAAAAAAAAAAAAAAAAAAAAAAAAAAAAAAAAAAAAAAAAAAAAAAAAAAAAAAAAAAAAAAAAAAAAAAAAAAAAAAAAAAAAAAAAAAAAAAAAAAAAAAAAAAAAAAAAAAAAAAAAAAAAAAAAAAAAAAAAAAAAAAAAAAAAAAAAAAAAAAAAAAAAAAAAAAAAAAAAAAAAAAAAAAAAAAAAAAAAAAAAAAAAAAAAAAAAAAAAAAAAAAAAAAAAAAAAAAAAAAAAAAAAAAAAAAAAAAAAAAAAAAAAAAAAAAAAAAAAAAAAAAAAAAAAAAAAAAAAAAAAAAAAAAAAAAAAAAAAAAAAAAAAAAAAAAAAAAAAAAAAAAAAAAAAAAAAAAAAAAAAAAAAAAAAAAAAAAAAAAAAAAAAAAAAAAAAAAAAAAAAAAAAAAAAAAAAAAAAAAAAAAAAAAAAAAAAAAAAAAAAAAAAAAAAAAAAAAAAAAAAAAAAAAAAAAAAAAAAAAAAAAAAAAAAAAAAAAAAAAAAAAAAAAAAAAAAAAAAAAAAAAAAAAAAAAAAAAAAAAAAAAAAAAAAAAAAAAAAAAAAAAAAAAAAAAAAAAAAAAAAAAAAAAAAAAAAAAAAAAAAAAAAAAAAAAAAAAAAAAAAAAAAAAAAAAAAAAAAAAAAAAAAAAAAAAAAAAAAAAAAAAAAAAAAAAAAAAAAAAAAAAAAAAAAAAAAAAAAAAAAAAAAAAAAAAAAAAAAAAAAAAAAAAAAAAAAAAAAAAAAAAAAAAAAAAAAAAAAAAAAAAAAAAAAAAAAAAAAAAAAAAAAAAAAAAAAAAAAAAAAAAAAAAAAAAAAAAAAAAAAAAAAAAAAAAAAAAAAAAAAAAAAAAAAAAAAAAAAAAAAAAAAAAAAAAAAAAAAAAAAAAAAAAAAAAAAAAAAAAAAAAAAAAAAAAAAAAAAAAAAAAAAAAAAAAAAAAAAAAAAAAAAAAAAAAAAAAAAAAAAAAAAAAAAAAAAAAAAAAAAAAAAAAAAAAAAAAAAAAAAAAAAAAAAAAAAAAAAAAAAAAAAAAAAAAAAAAAAAAAAAAAAAAAAAAAAAAAAAAAAAAAAAAAAAAAAAAAAAAAAAAAAAAAAAAAAAAAAAAAAAAAAAAAAAAAAAAAAAAAAAAAAAAAAAAAAAAAAAAAAAAAAAAAAAAAAAAAAAAAAAAAAAAAAAAAAAAAAAAAAAAAAAAAAAAAAAAAAAAAAAAAAAAAAAAAAAAAAAAAAAAAAAAAAAAAAAAAAAAAAAAAAAAAAAAAAAAAAAAAAAAAAAAAAAAAAAAAAAAAAAAAAAAAAAAAAAAAAAAAAAAAAAAAAAAAAAAAAAAAAAAAAAAAAAAAAAAAAAAAAAAAAAAAAAAAAAAAAAAAAAAAAAAAAAAAAAAAAAAAAAAAAAAAAAAAAAAAAAAAAAAAAAAAAAAAAAAAAAAAAAAAAAAAAAAAAAAAAAAAAAAAAAAAAAAAAAAAAAAAAAAAAAAAAAAAAAAAAAAAAAAAAAAAAAAAAAAAAAAAAAAAAAAAAAAAAAAAAAAAAAAAAAAAAAAAAAAAAAAAAAAAAAAAAAAAAAAAAAAAAAAAAAAAAAAAAAAAAAAAAAAAAAAAAAAAAAAAAAAAAAAAAAAAAAAAAAAAAAAAAAAAAAAAAAAAAAAAAAAAAAAAAAAAAAAAAAAAAAAAAAAAAAAAAAAAAAAAAAAAAAAAAAAAAAAAAAAAAAAAAAAAAAAAAAAAAAAAAAAAAAAAAAAAAAAAAAAAAAAAAAAAAAAAAAAAAAAAAAAAAAAAAAAAAAAAAAAAAAAAAAAAAAAAAAAAAAAAAAAAAAAAAAAAAAAAAAAAAAAAAAAAAAAAAAAAAAAAAAAAAAAAAAAAAAAAAAAAAAAAAAAAAAAAAAAAAAAAAAAAAAAAAAAAAAAAAAAAAAAAAAAAAAAAAAAAAAAAAAAAAAAAAAAAAAAAAAAAAAAAAAAAAAAAAAAAAAAAAAAAAAAAAAAAAAAAAAAAAAAAAAAAAAAAAAAAAAAAAAAAAAAAAAAAAAAAAAAAAAAAAAAAAAAAAAAAAAAAAAAAAAAAAAAAAAAAAAAAAAAAAAAAAAAAAAAAAAAAAAAAAAAAAAAAAAAAAAAAAAAAAAAAAAAAAAAAAAAAAAAAAAAAAAAAAAAAAAAAAAAAAAAAAAAAAAAAAAAAAAAAAAAAAAAAAAAAAAAAAAAAAAAAAAAAAAAAAAAAAAAAAAAAAAAAAAAAAAAAAAAAAAAAAAAAAAAAAAAAAAAAAAAAAAAAAAAAAAAAAAAAAAAAAAAAAAAAAAAAAAAAAAAAAAAAAAAAAAAAAAAAAAAAAAAAAAAAAAAAAAAAAAAAAAAAAAAAAAAAAAAAAAAAAAAAAAAAAAAAAAAAAAAAAAAAAAAAAAAAAAAAAAAAAAAAAAAAAAAAAAAAAAAAAAAAAAAAAAAAAAAAAAAAAAAAAAAAAAAAAAAAAAAAAAAAAAAAAAAAAAAAAAAAAAAAAAAAAAAAAAAAAAAAAAAAAAAAAAAAAAAAAAAAAAAAAAAAAAAAAAAAAAAAAAAAAAAAAAAAAAAAAAAAAAAAAAAAAAAAAAAAAAAAAAAAAAAAAAAAAAAAAAAAAAAAAAAAAAAAAAAAAAAAAAAAAAAAAAAAAAAAAAAAAAAAAAAAAAAAAAAAAAAAAAAAAAAAAAAAAAAAAAAAAAAAAAAAAAAAAAAAAAAAAAAAAAAAAAAAAAAAAAAAAAAAAAAAAAAAAAAAAAAAAAAAAAAAAAAAAAAAAAAAAAAAAAAAAAAAAAAAAAAAAAAAAAAAAAAAAAAAAAAAAAAAAAAAAAAAAAAAAAAAAAAAAAAAAAAAAAAAAAAAAAAAAAAAAAAAAAAAAAAAAAAAAAAAAAAAAAAAAAAAAAAAAAAAAAAAAAAAAAAAAAAAAAAAAAAAAAAAAAAAAAAAAAAAAAAAAAAAAAAAAAAAAAAAAAAAAAAAAAAAAAAAAAAAAAAAAAAAAAAAAAAAAAAAAAAAAAAAAAAAAAAAAAAAAAAAAAAAAAAAAAAAAAAAAAAAAAAAAAAAAAAAAAAAAAAAAAAAAAAAAAAAAAAAAAAAAAAAAAAAAAAAAAAAAAAAAAAAAAAAAAAAAAAAAAAAAAAAAAAAAAAAAAAAAAAAAAAAAAAAAAAAAAAAAAAAAAAAAAAAAAAAAAAAAAAAAAAAAAAAAAAAAAAAAAAAAAAAAAAAAAAAAAAAAAAAAAAAAAAAAAAAAAAAAAAAAAAAAAAAAAAAAAAAAAAAAAAAAAAAAAAAAAAAAAAAAAAAAAAAAAAAAAAAAAAAAAAAAAAAAAAAAAAAAAAAAAAAAAAAAAAAAAAAAAAAAAAAAAAAAAAAAAAAAAAAAAAAAAAAAAAAAAAAAAAAAAAAAAAAAAAAAAAAAAAAAAAAAAAAAAAAAAAAAAAAAAAAAAAAAAAAAAAAAAAAAAAAAAAAAAPZYQGOKhvgbsK2+DtWkPR7fCsDep6o6ebaKmHWY04CC6WpNGRGuaiXiFBoaeOZBr68240SisebX5m83gafbtM7XZ4U=</c2pa:manifest></metadata><title id="title">Daily GitHub contributions</title><desc id="desc">A pixel-art green daily contribution bar chart with hover labels for each day. A pixel Spider-Man hops across the bars and back.</desc><defs><pattern id="seg" width="18" height="8" patternUnits="userSpaceOnUse"><rect y="7" width="18" height="1" fill="#020807" fill-opacity=".7"/></pattern><pattern id="scan" width="4" height="4" patternUnits="userSpaceOnUse"><rect width="4" height="1" fill="#000" fill-opacity=".18"/></pattern></defs><rect width="900" height="300" rx="18" fill="#020807"/><rect width="900" height="300" rx="18" fill="url(#scan)"/><path d="M35 245h830" stroke="#b6fcb6" stroke-opacity=".35"/><g><title>Day 1: 1 contributions</title><g transform="translate(35 245)"><g><animateTransform attributeName="transform" type="scale" values="1 0;1 0;1 1;1 1" keyTimes="0;0;0.02632;1" dur="19s" repeatCount="indefinite"/><rect x="0" y="-24" width="18" height="24" fill="#0e4429"/><rect x="0" y="-24" width="18" height="24" fill="url(#seg)"/><rect x="0" y="-24" width="18" height="2" fill="#fff" fill-opacity=".35"/></g></g></g><g><title>Day 2: 2 contributions</title><g transform="translate(62 245)"><g><animateTransform attributeName="transform" type="scale" values="1 0;1 0;1 1;1 1" keyTimes="0;0.00158;0.02789;1" dur="19s" repeatCount="indefinite"/><rect x="0" y="-32" width="18" height="32" fill="#0e4429"/><rect x="0" y="-32" width="18" height="32" fill="url(#seg)"/><rect x="0" y="-32" width="18" height="2" fill="#fff" fill-opacity=".35"/></g></g></g><g><title>Day 3: 0 contributions</title><g transform="translate(89 245)"><g><animateTransform attributeName="transform" type="scale" values="1 0;1 0;1 1;1 1" keyTimes="0;0.00316;0.02947;1" dur="19s" repeatCount="indefinite"/><rect x="0" y="-16" width="18" height="16" fill="#0e4429"/><rect x="0" y="-16" width="18" height="16" fill="url(#seg)"/><rect x="0" y="-16" width="18" height="2" fill="#fff" fill-opacity=".35"/></g></g></g><g><title>Day 4: 4 contributions</title><g transform="translate(116 245)"><g><animateTransform attributeName="transform" type="scale" values="1 0;1 0;1 1;1 1" keyTimes="0;0.00474;0.03105;1" dur="19s" repeatCount="indefinite"/><rect x="0" y="-48" width="18" height="48" fill="#006d32"/><rect x="0" y="-48" width="18" height="48" fill="url(#seg)"/><rect x="0" y="-48" width="18" height="2" fill="#fff" fill-opacity=".35"/></g></g></g><g><title>Day 5: 3 contributions</title><g transform="translate(143 245)"><g><animateTransform attributeName="transform" type="scale" values="1 0;1 0;1 1;1 1" keyTimes="0;0.00632;0.03263;1" dur="19s" repeatCount="indefinite"/><rect x="0" y="-40" width="18" height="40" fill="#006d32"/><rect x="0" y="-40" width="18" height="40" fill="url(#seg)"/><rect x="0" y="-40" width="18" height="2" fill="#fff" fill-opacity=".35"/></g></g></g><g><title>Day 6: 1 contributions</title><g transform="translate(170 245)"><g><animateTransform attributeName="transform" type="scale" values="1 0;1 0;1 1;1 1" keyTimes="0;0.00789;0.03421;1" dur="19s" repeatCount="indefinite"/><rect x="0" y="-24" width="18" height="24" fill="#0e4429"/><rect x="0" y="-24" width="18" height="24" fill="url(#seg)"/><rect x="0" y="-24" width="18" height="2" fill="#fff" fill-opacity=".35"/></g></g></g><g><title>Day 7: 6 contributions</title><g transform="translate(197 245)"><g><animateTransform attributeName="transform" type="scale" values="1 0;1 0;1 1;1 1" keyTimes="0;0.00947;0.03579;1" dur="19s" repeatCount="indefinite"/><rect x="0" y="-72" width="18" height="72" fill="#26a641"/><rect x="0" y="-72" width="18" height="72" fill="url(#seg)"/><rect x="0" y="-72" width="18" height="2" fill="#fff" fill-opacity=".35"/></g></g></g><g><title>Day 8: 8 contributions</title><g transform="translate(224 245)"><g><animateTransform attributeName="transform" type="scale" values="1 0;1 0;1 1;1 1" keyTimes="0;0.01105;0.03737;1" dur="19s" repeatCount="indefinite"/><rect x="0" y="-96" width="18" height="96" fill="#26a641"/><rect x="0" y="-96" width="18" height="96" fill="url(#seg)"/><rect x="0" y="-96" width="18" height="2" fill="#fff" fill-opacity=".35"/></g></g></g><g><title>Day 9: 2 contributions</title><g transform="translate(251 245)"><g><animateTransform attributeName="transform" type="scale" values="1 0;1 0;1 1;1 1" keyTimes="0;0.01263;0.03895;1" dur="19s" repeatCount="indefinite"/><rect x="0" y="-32" width="18" height="32" fill="#0e4429"/><rect x="0" y="-32" width="18" height="32" fill="url(#seg)"/><rect x="0" y="-32" width="18" height="2" fill="#fff" fill-opacity=".35"/></g></g></g><g><title>Day 10: 0 contributions</title><g transform="translate(278 245)"><g><animateTransform attributeName="transform" type="scale" values="1 0;1 0;1 1;1 1" keyTimes="0;0.01421;0.04053;1" dur="19s" repeatCount="indefinite"/><rect x="0" y="-16" width="18" height="16" fill="#0e4429"/><rect x="0" y="-16" width="18" height="16" fill="url(#seg)"/><rect x="0" y="-16" width="18" height="2" fill="#fff" fill-opacity=".35"/></g></g></g><g><title>Day 11: 4 contributions</title><g transform="translate(305 245)"><g><animateTransform attributeName="transform" type="scale" values="1 0;1 0;1 1;1 1" keyTimes="0;0.01579;0.04211;1" dur="19s" repeatCount="indefinite"/><rect x="0" y="-48" width="18" height="48" fill="#006d32"/><rect x="0" y="-48" width="18" height="48" fill="url(#seg)"/><rect x="0" y="-48" width="18" height="2" fill="#fff" fill-opacity=".35"/></g></g></g><g><title>Day 12: 5 contributions</title><g transform="translate(332 245)"><g><animateTransform attributeName="transform" type="scale" values="1 0;1 0;1 1;1 1" keyTimes="0;0.01737;0.04368;1" dur="19s" repeatCount="indefinite"/><rect x="0" y="-64" width="18" height="64" fill="#006d32"/><rect x="0" y="-64" width="18" height="64" fill="url(#seg)"/><rect x="0" y="-64" width="18" height="2" fill="#fff" fill-opacity=".35"/></g></g></g><g><title>Day 13: 9 contributions</title><g transform="translate(359 245)"><g><animateTransform attributeName="transform" type="scale" values="1 0;1 0;1 1;1 1" keyTimes="0;0.01895;0.04526;1" dur="19s" repeatCount="indefinite"/><rect x="0" y="-104" width="18" height="104" fill="#39d353"/><rect x="0" y="-104" width="18" height="104" fill="url(#seg)"/><rect x="0" y="-104" width="18" height="2" fill="#fff" fill-opacity=".35"/></g></g></g><g><title>Day 14: 3 contributions</title><g transform="translate(386 245)"><g><animateTransform attributeName="transform" type="scale" values="1 0;1 0;1 1;1 1" keyTimes="0;0.02053;0.04684;1" dur="19s" repeatCount="indefinite"/><rect x="0" y="-40" width="18" height="40" fill="#006d32"/><rect x="0" y="-40" width="18" height="40" fill="url(#seg)"/><rect x="0" y="-40" width="18" height="2" fill="#fff" fill-opacity=".35"/></g></g></g><g><title>Day 15: 1 contributions</title><g transform="translate(413 245)"><g><animateTransform attributeName="transform" type="scale" values="1 0;1 0;1 1;1 1" keyTimes="0;0.02211;0.04842;1" dur="19s" repeatCount="indefinite"/><rect x="0" y="-24" width="18" height="24" fill="#0e4429"/><rect x="0" y="-24" width="18" height="24" fill="url(#seg)"/><rect x="0" y="-24" width="18" height="2" fill="#fff" fill-opacity=".35"/></g></g></g><g><title>Day 16: 2 contributions</title><g transform="translate(440 245)"><g><animateTransform attributeName="transform" type="scale" values="1 0;1 0;1 1;1 1" keyTimes="0;0.02368;0.05;1" dur="19s" repeatCount="indefinite"/><rect x="0" y="-32" width="18" height="32" fill="#0e4429"/><rect x="0" y="-32" width="18" height="32" fill="url(#seg)"/><rect x="0" y="-32" width="18" height="2" fill="#fff" fill-opacity=".35"/></g></g></g><g><title>Day 17: 7 contributions</title><g transform="translate(467 245)"><g><animateTransform attributeName="transform" type="scale" values="1 0;1 0;1 1;1 1" keyTimes="0;0.02526;0.05158;1" dur="19s" repeatCount="indefinite"/><rect x="0" y="-80" width="18" height="80" fill="#26a641"/><rect x="0" y="-80" width="18" height="80" fill="url(#seg)"/><rect x="0" y="-80" width="18" height="2" fill="#fff" fill-opacity=".35"/></g></g></g><g><title>Day 18: 5 contributions</title><g transform="translate(494 245)"><g><animateTransform attributeName="transform" type="scale" values="1 0;1 0;1 1;1 1" keyTimes="0;0.02684;0.05316;1" dur="19s" repeatCount="indefinite"/><rect x="0" y="-64" width="18" height="64" fill="#006d32"/><rect x="0" y="-64" width="18" height="64" fill="url(#seg)"/><rect x="0" y="-64" width="18" height="2" fill="#fff" fill-opacity=".35"/></g></g></g><g><title>Day 19: 4 contributions</title><g transform="translate(521 245)"><g><animateTransform attributeName="transform" type="scale" values="1 0;1 0;1 1;1 1" keyTimes="0;0.02842;0.05474;1" dur="19s" repeatCount="indefinite"/><rect x="0" y="-48" width="18" height="48" fill="#006d32"/><rect x="0" y="-48" width="18" height="48" fill="url(#seg)"/><rect x="0" y="-48" width="18" height="2" fill="#fff" fill-opacity=".35"/></g></g></g><g><title>Day 20: 10 contributions</title><g transform="translate(548 245)"><g><animateTransform attributeName="transform" type="scale" values="1 0;1 0;1 1;1 1" keyTimes="0;0.03;0.05632;1" dur="19s" repeatCount="indefinite"/><rect x="0" y="-112" width="18" height="112" fill="#39d353"/><rect x="0" y="-112" width="18" height="112" fill="url(#seg)"/><rect x="0" y="-112" width="18" height="2" fill="#fff" fill-opacity=".35"/></g></g></g><g><title>Day 21: 6 contributions</title><g transform="translate(575 245)"><g><animateTransform attributeName="transform" type="scale" values="1 0;1 0;1 1;1 1" keyTimes="0;0.03158;0.05789;1" dur="19s" repeatCount="indefinite"/><rect x="0" y="-72" width="18" height="72" fill="#26a641"/><rect x="0" y="-72" width="18" height="72" fill="url(#seg)"/><rect x="0" y="-72" width="18" height="2" fill="#fff" fill-opacity=".35"/></g></g></g><g><title>Day 22: 2 contributions</title><g transform="translate(602 245)"><g><animateTransform attributeName="transform" type="scale" values="1 0;1 0;1 1;1 1" keyTimes="0;0.03316;0.05947;1" dur="19s" repeatCount="indefinite"/><rect x="0" y="-32" width="18" height="32" fill="#0e4429"/><rect x="0" y="-32" width="18" height="32" fill="url(#seg)"/><rect x="0" y="-32" width="18" height="2" fill="#fff" fill-opacity=".35"/></g></g></g><g><title>Day 23: 1 contributions</title><g transform="translate(629 245)"><g><animateTransform attributeName="transform" type="scale" values="1 0;1 0;1 1;1 1" keyTimes="0;0.03474;0.06105;1" dur="19s" repeatCount="indefinite"/><rect x="0" y="-24" width="18" height="24" fill="#0e4429"/><rect x="0" y="-24" width="18" height="24" fill="url(#seg)"/><rect x="0" y="-24" width="18" height="2" fill="#fff" fill-opacity=".35"/></g></g></g><g><title>Day 24: 5 contributions</title><g transform="translate(656 245)"><g><animateTransform attributeName="transform" type="scale" values="1 0;1 0;1 1;1 1" keyTimes="0;0.03632;0.06263;1" dur="19s" repeatCount="indefinite"/><rect x="0" y="-64" width="18" height="64" fill="#006d32"/><rect x="0" y="-64" width="18" height="64" fill="url(#seg)"/><rect x="0" y="-64" width="18" height="2" fill="#fff" fill-opacity=".35"/></g></g></g><g><title>Day 25: 8 contributions</title><g transform="translate(683 245)"><g><animateTransform attributeName="transform" type="scale" values="1 0;1 0;1 1;1 1" keyTimes="0;0.03789;0.06421;1" dur="19s" repeatCount="indefinite"/><rect x="0" y="-96" width="18" height="96" fill="#26a641"/><rect x="0" y="-96" width="18" height="96" fill="url(#seg)"/><rect x="0" y="-96" width="18" height="2" fill="#fff" fill-opacity=".35"/></g></g></g><g><title>Day 26: 4 contributions</title><g transform="translate(710 245)"><g><animateTransform attributeName="transform" type="scale" values="1 0;1 0;1 1;1 1" keyTimes="0;0.03947;0.06579;1" dur="19s" repeatCount="indefinite"/><rect x="0" y="-48" width="18" height="48" fill="#006d32"/><rect x="0" y="-48" width="18" height="48" fill="url(#seg)"/><rect x="0" y="-48" width="18" height="2" fill="#fff" fill-opacity=".35"/></g></g></g><g><title>Day 27: 3 contributions</title><g transform="translate(737 245)"><g><animateTransform attributeName="transform" type="scale" values="1 0;1 0;1 1;1 1" keyTimes="0;0.04105;0.06737;1" dur="19s" repeatCount="indefinite"/><rect x="0" y="-40" width="18" height="40" fill="#006d32"/><rect x="0" y="-40" width="18" height="40" fill="url(#seg)"/><rect x="0" y="-40" width="18" height="2" fill="#fff" fill-opacity=".35"/></g></g></g><g><title>Day 28: 6 contributions</title><g transform="translate(764 245)"><g><animateTransform attributeName="transform" type="scale" values="1 0;1 0;1 1;1 1" keyTimes="0;0.04263;0.06895;1" dur="19s" repeatCount="indefinite"/><rect x="0" y="-72" width="18" height="72" fill="#26a641"/><rect x="0" y="-72" width="18" height="72" fill="url(#seg)"/><rect x="0" y="-72" width="18" height="2" fill="#fff" fill-opacity=".35"/></g></g></g><g><title>Day 29: 2 contributions</title><g transform="translate(791 245)"><g><animateTransform attributeName="transform" type="scale" values="1 0;1 0;1 1;1 1" keyTimes="0;0.04421;0.07053;1" dur="19s" repeatCount="indefinite"/><rect x="0" y="-32" width="18" height="32" fill="#0e4429"/><rect x="0" y="-32" width="18" height="32" fill="url(#seg)"/><rect x="0" y="-32" width="18" height="2" fill="#fff" fill-opacity=".35"/></g></g></g><g><title>Day 30: 1 contributions</title><g transform="translate(818 245)"><g><animateTransform attributeName="transform" type="scale" values="1 0;1 0;1 1;1 1" keyTimes="0;0.04579;0.07211;1" dur="19s" repeatCount="indefinite"/><rect x="0" y="-24" width="18" height="24" fill="#0e4429"/><rect x="0" y="-24" width="18" height="24" fill="url(#seg)"/><rect x="0" y="-24" width="18" height="2" fill="#fff" fill-opacity=".35"/></g></g></g><g><title>Day 31: 4 contributions</title><g transform="translate(845 245)"><g><animateTransform attributeName="transform" type="scale" values="1 0;1 0;1 1;1 1" keyTimes="0;0.04737;0.07368;1" dur="19s" repeatCount="indefinite"/><rect x="0" y="-48" width="18" height="48" fill="#006d32"/><rect x="0" y="-48" width="18" height="48" fill="url(#seg)"/><rect x="0" y="-48" width="18" height="2" fill="#fff" fill-opacity=".35"/></g></g></g><text x="35" y="32" font-family="Arial,sans-serif" font-size="19" font-weight="900" fill="#f7fff8">DAILY CONTRIBUTIONS // THE WEB</text><text x="35" y="54" font-family="Arial,sans-serif" font-size="12" fill="#b6fcb6">Hover a node for the exact daily count · GitHub green intensity</text><g shape-rendering="crispEdges" opacity="0"><animate attributeName="opacity" calcMode="discrete" values="0;1" keyTimes="0;0.06316" dur="19s" repeatCount="indefinite"/><animateTransform attributeName="transform" type="translate" values="44 191;44 191;57.5 169;71 183;84.5 169;98 199;111.5 153;125 167;138.5 153;152 175;165.5 161;179 191;192.5 129;206 143;219.5 105;233 119;246.5 105;260 183;273.5 169;287 199;300.5 153;314 167;327.5 137;341 151;354.5 97;368 111;381.5 97;395 175;408.5 161;422 191;435.5 169;449 183;462.5 121;476 135;489.5 121;503 151;516.5 137;530 167;543.5 89;557 103;570.5 89;584 143;597.5 129;611 183;624.5 169;638 191;651.5 137;665 151;678.5 105;692 119;705.5 105;719 167;732.5 153;746 175;759.5 129;773 143;786.5 129;800 183;813.5 169;827 191;840.5 153;854 167;854 167;840.5 153;827 191;813.5 169;800 183;786.5 129;773 143;759.5 129;746 175;732.5 153;719 167;705.5 105;692 119;678.5 105;665 151;651.5 137;638 191;624.5 169;611 183;597.5 129;584 143;570.5 89;557 103;543.5 89;530 167;516.5 137;503 151;489.5 121;476 135;462.5 121;449 183;435.5 169;422 191;408.5 161;395 175;381.5 97;368 111;354.5 97;341 151;327.5 137;314 167;300.5 153;287 199;273.5 169;260 183;246.5 105;233 119;219.5 105;206 143;192.5 129;179 191;165.5 161;152 175;138.5 153;125 167;111.5 153;98 199;84.5 169;71 183;57.5 169;44 191" keyTimes="0;0.08421;0.09158;0.09895;0.10632;0.11368;0.12105;0.12842;0.13579;0.14316;0.15053;0.15789;0.16526;0.17263;0.18;0.18737;0.19474;0.20211;0.20947;0.21684;0.22421;0.23158;0.23895;0.24632;0.25368;0.26105;0.26842;0.27579;0.28316;0.29053;0.29789;0.30526;0.31263;0.32;0.32737;0.33474;0.34211;0.34947;0.35684;0.36421;0.37158;0.37895;0.38632;0.39368;0.40105;0.40842;0.41579;0.42316;0.43053;0.43789;0.44526;0.45263;0.46;0.46737;0.47474;0.48211;0.48947;0.49684;0.50421;0.51158;0.51895;0.52632;0.55789;0.56526;0.57263;0.58;0.58737;0.59474;0.60211;0.60947;0.61684;0.62421;0.63158;0.63895;0.64632;0.65368;0.66105;0.66842;0.67579;0.68316;0.69053;0.69789;0.70526;0.71263;0.72;0.72737;0.73474;0.74211;0.74947;0.75684;0.76421;0.77158;0.77895;0.78632;0.79368;0.80105;0.80842;0.81579;0.82316;0.83053;0.83789;0.84526;0.85263;0.86;0.86737;0.87474;0.88211;0.88947;0.89684;0.90421;0.91158;0.91895;0.92632;0.93368;0.94105;0.94842;0.95579;0.96316;0.97053;0.97789;0.98526;0.99263;1" dur="19s" repeatCount="indefinite"/><g><animate attributeName="opacity" calcMode="discrete" values="1;0" dur="0.56s" repeatCount="indefinite"/><g transform="translate(-24 -30)"><rect x="18" y="0" width="12" height="3" fill="#e0263f"/><rect x="15" y="3" width="18" height="3" fill="#e0263f"/><rect x="3" y="6" width="6" height="3" fill="#e0263f"/><rect x="15" y="6" width="3" height="3" fill="#e0263f"/><rect x="18" y="6" width="3" height="3" fill="#8e1626"/><rect x="21" y="6" width="6" height="3" fill="#e0263f"/><rect x="27" y="6" width="3" height="3" fill="#8e1626"/><rect x="30" y="6" width="3" height="3" fill="#e0263f"/><rect x="3" y="9" width="6" height="3" fill="#e0263f"/><rect x="15" y="9" width="6" height="3" fill="#ffffff"/><rect x="21" y="9" width="6" height="3" fill="#e0263f"/><rect x="27" y="9" width="6" height="3" fill="#ffffff"/><rect x="6" y="12" width="6" height="3" fill="#e0263f"/><rect x="15" y="12" width="3" height="3" fill="#e0263f"/><rect x="18" y="12" width="3" height="3" fill="#ffffff"/><rect x="21" y="12" width="6" height="3" fill="#e0263f"/><rect x="27" y="12" width="3" height="3" fill="#ffffff"/><rect x="30" y="12" width="3" height="3" fill="#e0263f"/><rect x="6" y="15" width="6" height="3" fill="#e0263f"/><rect x="18" y="15" width="12" height="3" fill="#e0263f"/><rect x="9" y="18" width="9" height="3" fill="#e0263f"/><rect x="18" y="18" width="3" height="3" fill="#8e1626"/><rect x="21" y="18" width="6" height="3" fill="#e0263f"/><rect x="27" y="18" width="3" height="3" fill="#8e1626"/><rect x="30" y="18" width="9" height="3" fill="#e0263f"/><rect x="12" y="21" width="9" height="3" fill="#e0263f"/><rect x="21" y="21" width="6" height="3" fill="#111111"/><rect x="27" y="21" width="15" height="3" fill="#e0263f"/><rect x="15" y="24" width="6" height="3" fill="#e0263f"/><rect x="21" y="24" width="6" height="3" fill="#8e1626"/><rect x="27" y="24" width="6" height="3" fill="#e0263f"/><rect x="39" y="24" width="6" height="3" fill="#e0263f"/><rect x="15" y="27" width="3" height="3" fill="#17306e"/><rect x="18" y="27" width="12" height="3" fill="#2b50c8"/><rect x="30" y="27" width="3" height="3" fill="#17306e"/><rect x="39" y="27" width="6" height="3" fill="#e0263f"/><rect x="15" y="30" width="3" height="3" fill="#17306e"/><rect x="18" y="30" width="12" height="3" fill="#2b50c8"/><rect x="30" y="30" width="3" height="3" fill="#17306e"/><rect x="42" y="30" width="3" height="3" fill="#e0263f"/><rect x="15" y="33" width="18" height="3" fill="#2b50c8"/><rect x="12" y="36" width="9" height="3" fill="#2b50c8"/><rect x="27" y="36" width="9" height="3" fill="#2b50c8"/><rect x="12" y="39" width="6" height="3" fill="#2b50c8"/><rect x="30" y="39" width="9" height="3" fill="#2b50c8"/><rect x="9" y="42" width="6" height="3" fill="#2b50c8"/><rect x="33" y="42" width="6" height="3" fill="#2b50c8"/><rect x="6" y="45" width="6" height="3" fill="#2b50c8"/><rect x="30" y="45" width="6" height="3" fill="#2b50c8"/><rect x="6" y="48" width="6" height="3" fill="#2b50c8"/><rect x="30" y="48" width="6" height="3" fill="#e0263f"/><rect x="3" y="51" width="6" height="3" fill="#2b50c8"/><rect x="3" y="54" width="6" height="3" fill="#e0263f"/><rect x="3" y="57" width="6" height="3" fill="#e0263f"/></g></g><g opacity="0"><animate attributeName="opacity" calcMode="discrete" values="0;1" dur="0.56s" repeatCount="indefinite"/><g transform="translate(-24 -30)"><rect x="18" y="0" width="12" height="3" fill="#e0263f"/><rect x="15" y="3" width="18" height="3" fill="#e0263f"/><rect x="15" y="6" width="3" height="3" fill="#e0263f"/><rect x="18" y="6" width="3" height="3" fill="#8e1626"/><rect x="21" y="6" width="6" height="3" fill="#e0263f"/><rect x="27" y="6" width="3" height="3" fill="#8e1626"/><rect x="30" y="6" width="3" height="3" fill="#e0263f"/><rect x="39" y="6" width="6" height="3" fill="#e0263f"/><rect x="15" y="9" width="6" height="3" fill="#ffffff"/><rect x="21" y="9" width="6" height="3" fill="#e0263f"/><rect x="27" y="9" width="6" height="3" fill="#ffffff"/><rect x="39" y="9" width="6" height="3" fill="#e0263f"/><rect x="15" y="12" width="3" height="3" fill="#e0263f"/><rect x="18" y="12" width="3" height="3" fill="#ffffff"/><rect x="21" y="12" width="6" height="3" fill="#e0263f"/><rect x="27" y="12" width="3" height="3" fill="#ffffff"/><rect x="30" y="12" width="3" height="3" fill="#e0263f"/><rect x="36" y="12" width="6" height="3" fill="#e0263f"/><rect x="18" y="15" width="12" height="3" fill="#e0263f"/><rect x="36" y="15" width="6" height="3" fill="#e0263f"/><rect x="9" y="18" width="9" height="3" fill="#e0263f"/><rect x="18" y="18" width="3" height="3" fill="#8e1626"/><rect x="21" y="18" width="6" height="3" fill="#e0263f"/><rect x="27" y="18" width="3" height="3" fill="#8e1626"/><rect x="30" y="18" width="9" height="3" fill="#e0263f"/><rect x="6" y="21" width="15" height="3" fill="#e0263f"/><rect x="21" y="21" width="6" height="3" fill="#111111"/><rect x="27" y="21" width="9" height="3" fill="#e0263f"/><rect x="3" y="24" width="6" height="3" fill="#e0263f"/><rect x="15" y="24" width="6" height="3" fill="#e0263f"/><rect x="21" y="24" width="6" height="3" fill="#8e1626"/><rect x="27" y="24" width="6" height="3" fill="#e0263f"/><rect x="3" y="27" width="6" height="3" fill="#e0263f"/><rect x="15" y="27" width="3" height="3" fill="#17306e"/><rect x="18" y="27" width="12" height="3" fill="#2b50c8"/><rect x="30" y="27" width="3" height="3" fill="#17306e"/><rect x="3" y="30" width="3" height="3" fill="#e0263f"/><rect x="15" y="30" width="3" height="3" fill="#17306e"/><rect x="18" y="30" width="12" height="3" fill="#2b50c8"/><rect x="30" y="30" width="3" height="3" fill="#17306e"/><rect x="15" y="33" width="18" height="3" fill="#2b50c8"/><rect x="12" y="36" width="9" height="3" fill="#2b50c8"/><rect x="27" y="36" width="9" height="3" fill="#2b50c8"/><rect x="9" y="39" width="9" height="3" fill="#2b50c8"/><rect x="30" y="39" width="6" height="3" fill="#2b50c8"/><rect x="9" y="42" width="6" height="3" fill="#2b50c8"/><rect x="33" y="42" width="6" height="3" fill="#2b50c8"/><rect x="12" y="45" width="6" height="3" fill="#2b50c8"/><rect x="36" y="45" width="6" height="3" fill="#2b50c8"/><rect x="12" y="48" width="6" height="3" fill="#e0263f"/><rect x="36" y="48" width="6" height="3" fill="#2b50c8"/><rect x="39" y="51" width="6" height="3" fill="#2b50c8"/><rect x="39" y="54" width="6" height="3" fill="#e0263f"/><rect x="39" y="57" width="6" height="3" fill="#e0263f"/></g></g></g><text x="35" y="275" font-family="Consolas,monospace" font-size="11" fill="#39d353">LOW ACTIVITY</text><rect x="410" y="263" width="14" height="14" fill="#0e4429"/><rect x="432" y="263" width="14" height="14" fill="#006d32"/><rect x="454" y="263" width="14" height="14" fill="#26a641"/><rect x="476" y="263" width="14" height="14" fill="#39d353"/><text x="790" y="275" font-family="Consolas,monospace" font-size="11" fill="#b6fcb6">HIGH ACTIVITY</text></svg>